<svg width="24" height="24" viewBox="0 0 24 24" fill="none" xmlns="http://www.w3.org/2000/svg">
<path d="M13.4326 1.25H7.56739C6.61495 1.24999 5.85439 1.24999 5.24013 1.30018C4.61012 1.35165 4.06824 1.45963 3.57054 1.71322C2.77085 2.12068 2.12068 2.77085 1.71322 3.57054C1.45963 4.06824 1.35165 4.61012 1.30018 5.24013C1.24999 5.85439 1.24999 6.61494 1.25 7.56738V16.4326C1.24999 17.385 1.24999 18.1456 1.30018 18.7599C1.35165 19.3899 1.45963 19.9318 1.71322 20.4295C2.12068 21.2291 2.77085 21.8793 3.57054 22.2868C4.06824 22.5404 4.61012 22.6483 5.24013 22.6998C5.85438 22.75 6.6149 22.75 7.56731 22.75H13.4013C13.8156 22.75 14.1513 22.4142 14.1513 22C14.1513 21.5858 13.8152 21.25 13.401 21.25H7.6C6.60753 21.25 5.90829 21.2494 5.36228 21.2048C4.82503 21.1609 4.50252 21.0782 4.25153 20.9503C3.73408 20.6866 3.31338 20.2659 3.04973 19.7485C2.92184 19.4975 2.83909 19.175 2.79519 18.6377C2.75058 18.0917 2.75 17.3925 2.75 16.4V7.6C2.75 6.60753 2.75058 5.90829 2.79519 5.36228C2.83909 4.82503 2.92184 4.50252 3.04973 4.25153C3.31338 3.73408 3.73408 3.31338 4.25153 3.04973C4.50252 2.92184 4.82503 2.83909 5.36228 2.79519C5.90829 2.75058 6.60753 2.75 7.6 2.75H13.4C14.3925 2.75 15.0917 2.75058 15.6377 2.79519C16.175 2.83909 16.4975 2.92184 16.7485 3.04973C17.2659 3.31338 17.6866 3.73408 17.9503 4.25153C18.0782 4.50252 18.1609 4.82503 18.2048 5.36228C18.2494 5.90829 18.25 6.60753 18.25 7.6V13C18.25 13.4142 18.5858 13.75 19 13.75C19.4142 13.75 19.75 13.4142 19.75 13V7.56737C19.75 6.61496 19.75 5.85438 19.6998 5.24013C19.6483 4.61012 19.5404 4.06824 19.2868 3.57054C18.8793 2.77085 18.2291 2.12068 17.4295 1.71322C16.9318 1.45963 16.3899 1.35165 15.7599 1.30018C15.1456 1.24999 14.385 1.24999 13.4326 1.25Z" fill="#4A88EE"/>
<path d="M6.5 7.25C6.08579 7.25 5.75 7.58579 5.75 8C5.75 8.41421 6.08579 8.75 6.5 8.75H10.5C10.9142 8.75 11.25 8.41421 11.25 8C11.25 7.58579 10.9142 7.25 10.5 7.25H6.5Z" fill="#4A88EE"/>
<path d="M6.5 11.25C6.08579 11.25 5.75 11.5858 5.75 12C5.75 12.4142 6.08579 12.75 6.5 12.75H14.5C14.9142 12.75 15.25 12.4142 15.25 12C15.25 11.5858 14.9142 11.25 14.5 11.25H6.5Z" fill="#4A88EE"/>
<path d="M6.5 15.25C6.08579 15.25 5.75 15.5858 5.75 16C5.75 16.4142 6.08579 16.75 6.5 16.75L13 16.75C13.4142 16.75 13.75 16.4142 13.75 16C13.75 15.5858 13.4142 15.25 13 15.25L6.5 15.25Z" fill="#4A88EE"/>
<path d="M15.25 16C15.25 15.5858 15.5858 15.25 16 15.25H20.5C20.9142 15.25 21.25 15.5858 21.25 16C21.25 16.4142 20.9142 16.75 20.5 16.75H17.8107L22.5303 21.4697C22.8232 21.7626 22.8232 22.2374 22.5303 22.5303C22.2374 22.8232 21.7626 22.8232 21.4697 22.5303L16.75 17.8107V20.5C16.75 20.9142 16.4142 21.25 16 21.25C15.5858 21.25 15.25 20.9142 15.25 20.5V16Z" fill="#4A88EE"/>
</svg>
