<svg width="24" height="24" viewBox="0 0 24 24" fill="none" xmlns="http://www.w3.org/2000/svg">
<path fill-rule="evenodd" clip-rule="evenodd" d="M16.0006 4H11.7785C11.2341 3.99999 10.7923 3.99999 10.4339 4.02927C10.064 4.05949 9.73484 4.12363 9.42901 4.27945C8.94657 4.52527 8.55434 4.9175 8.30852 5.39994C8.1527 5.70577 8.08856 6.03489 8.05834 6.40479C8.02906 6.76318 8.02906 7.20502 8.02907 7.74937V8.02907H7.74939C7.20504 8.02906 6.76318 8.02906 6.40479 8.05834C6.03489 8.08856 5.70577 8.1527 5.39994 8.30852C4.9175 8.55434 4.52527 8.94657 4.27945 9.42901C4.12363 9.73484 4.05949 10.064 4.02927 10.4339C3.99999 10.7923 3.99999 11.2341 4 11.7784V16.0006C3.99999 16.545 3.99999 16.9868 4.02927 17.3452C4.05949 17.7151 4.12363 18.0442 4.27945 18.3501C4.52527 18.8325 4.9175 19.2247 5.39994 19.4705C5.70577 19.6264 6.03489 19.6905 6.40479 19.7207C6.76317 19.75 7.20499 19.75 7.74931 19.75H11.9716C12.5159 19.75 12.9578 19.75 13.3161 19.7207C13.686 19.6905 14.0152 19.6264 14.321 19.4705C14.8034 19.2247 15.1957 18.8325 15.4415 18.3501C15.5973 18.0442 15.6614 17.7151 15.6917 17.3452C15.7209 16.9868 15.7209 16.545 15.7209 16.0007V15.7209H16.0006C16.5449 15.7209 16.9868 15.7209 17.3452 15.6917C17.7151 15.6614 18.0442 15.5973 18.3501 15.4415C18.8325 15.1957 19.2247 14.8034 19.4705 14.321C19.6264 14.0152 19.6905 13.686 19.7207 13.3161C19.75 12.9578 19.75 12.5159 19.75 11.9716V7.74937C19.75 7.20505 19.75 6.76317 19.7207 6.40479C19.6905 6.03489 19.6264 5.70577 19.4705 5.39994C19.2247 4.9175 18.8325 4.52527 18.3501 4.27945C18.0442 4.12363 17.7151 4.05949 17.3452 4.02927C16.9868 3.99999 16.545 3.99999 16.0006 4ZM14.6221 15.7209V15.9773C14.6221 16.5505 14.6217 16.9474 14.5965 17.2557C14.5718 17.5577 14.5261 17.7261 14.4624 17.8512C14.3219 18.1269 14.0978 18.351 13.8221 18.4915C13.697 18.5552 13.5286 18.6009 13.2267 18.6255C12.9183 18.6507 12.5214 18.6512 11.9483 18.6512H7.77267C7.19949 18.6512 6.80264 18.6507 6.49427 18.6255C6.19232 18.6009 6.02391 18.5552 5.89881 18.4915C5.62313 18.351 5.39899 18.1269 5.25853 17.8512C5.19478 17.7261 5.14913 17.5577 5.12446 17.2557C5.09926 16.9474 5.09884 16.5505 5.09884 15.9773V11.8017C5.09884 11.2286 5.09926 10.8317 5.12446 10.5233C5.14913 10.2214 5.19478 10.053 5.25853 9.92787C5.39899 9.6522 5.62313 9.42806 5.89881 9.2876C6.02391 9.22385 6.19232 9.1782 6.49427 9.15353C6.80264 9.12833 7.19949 9.12791 7.77267 9.12791H8.02907V11.9715C8.02906 12.5159 8.02906 12.9577 8.05834 13.3161C8.08856 13.686 8.1527 14.0152 8.30852 14.321C8.55434 14.8034 8.94657 15.1957 9.42901 15.4415C9.73484 15.5973 10.064 15.6614 10.4339 15.6917C10.7922 15.7209 11.2341 15.7209 11.7784 15.7209H14.6221ZM9.12791 11.9483C9.12791 12.5214 9.12833 12.9183 9.15353 13.2267C9.1782 13.5286 9.22385 13.697 9.2876 13.8221C9.42806 14.0978 9.6522 14.3219 9.92787 14.4624C10.053 14.5261 10.2214 14.5718 10.5233 14.5965C10.8317 14.6217 11.2286 14.6221 11.8017 14.6221H15.9773C16.5505 14.6221 16.9474 14.6217 17.2557 14.5965C17.5577 14.5718 17.7261 14.5261 17.8512 14.4624C18.1269 14.3219 18.351 14.0978 18.4915 13.8221C18.5552 13.697 18.6009 13.5286 18.6255 13.2267C18.6507 12.9183 18.6512 12.5214 18.6512 11.9483V7.77267C18.6512 7.19949 18.6507 6.80264 18.6255 6.49427C18.6009 6.19232 18.5552 6.02391 18.4915 5.89881C18.351 5.62313 18.1269 5.39899 17.8512 5.25853C17.7261 5.19478 17.5577 5.14913 17.2557 5.12446C16.9474 5.09926 16.5505 5.09884 15.9773 5.09884H11.8017C11.2286 5.09884 10.8317 5.09926 10.5233 5.12446C10.2214 5.14913 10.053 5.19478 9.92787 5.25853C9.6522 5.39899 9.42806 5.62313 9.2876 5.89881C9.22385 6.02391 9.1782 6.19232 9.15353 6.49427C9.12833 6.80264 9.12791 7.19949 9.12791 7.77267V11.9483Z" fill="#4A88EE"/>
</svg>
