<svg width="141" height="24" viewBox="0 0 141 24" fill="none" xmlns="http://www.w3.org/2000/svg">
<path d="M1.0625 18V6.35938H2.79688V16.4766H8.30469V18H1.0625ZM13.1406 18.1875C12.3229 18.1875 11.6198 18.0026 11.0312 17.6328C10.4479 17.263 9.9974 16.7552 9.67969 16.1094C9.36719 15.4583 9.21094 14.7188 9.21094 13.8906C9.21094 13.0521 9.375 12.3073 9.70312 11.6562C10.0312 11.0052 10.4844 10.4948 11.0625 10.125C11.6406 9.75 12.3047 9.5625 13.0547 9.5625C13.8359 9.5625 14.513 9.74479 15.0859 10.1094C15.6641 10.474 16.112 10.9818 16.4297 11.6328C16.7474 12.2786 16.9062 13.026 16.9062 13.875V14.3203H10.8359C10.8672 15.0651 11.0807 15.6667 11.4766 16.125C11.8776 16.5833 12.4401 16.8125 13.1641 16.8125C13.7057 16.8125 14.151 16.6901 14.5 16.4453C14.849 16.2005 15.0807 15.8828 15.1953 15.4922H16.7812C16.6823 16.0234 16.4609 16.4922 16.1172 16.8984C15.7786 17.3047 15.3516 17.6224 14.8359 17.8516C14.3255 18.0755 13.7604 18.1875 13.1406 18.1875ZM10.8516 13.0703H15.2969C15.2292 12.4141 14.9974 11.8958 14.6016 11.5156C14.2057 11.1302 13.6953 10.9375 13.0703 10.9375C12.4453 10.9375 11.9349 11.1302 11.5391 11.5156C11.1484 11.8958 10.9193 12.4141 10.8516 13.0703ZM21.9375 21.375C20.9271 21.375 20.1016 21.151 19.4609 20.7031C18.8203 20.2552 18.4453 19.6276 18.3359 18.8203H19.9844C20.0885 19.2214 20.3151 19.5234 20.6641 19.7266C21.013 19.9297 21.4375 20.0312 21.9375 20.0312C22.6042 20.0312 23.125 19.8516 23.5 19.4922C23.875 19.1328 24.0625 18.6198 24.0625 17.9531V16.7031H24.0547C23.7682 17.1823 23.4062 17.5365 22.9688 17.7656C22.5365 17.9948 22.0495 18.1094 21.5078 18.1094C20.7891 18.1094 20.1615 17.9297 19.625 17.5703C19.0885 17.2057 18.6719 16.7057 18.375 16.0703C18.0781 15.4297 17.9297 14.6901 17.9297 13.8516C17.9297 13.013 18.0781 12.2734 18.375 11.6328C18.6771 10.9922 19.0964 10.4922 19.6328 10.1328C20.1693 9.76823 20.7917 9.58594 21.5 9.58594C22.0365 9.58594 22.5286 9.70052 22.9766 9.92969C23.4245 10.1589 23.7865 10.5182 24.0625 11.0078H24.0703V9.75H25.6953V17.8906C25.6953 18.724 25.526 19.3958 25.1875 19.9062C24.849 20.4167 24.3958 20.7891 23.8281 21.0234C23.2604 21.2578 22.6302 21.375 21.9375 21.375ZM21.8438 16.6953C22.5469 16.6953 23.1068 16.4375 23.5234 15.9219C23.9453 15.401 24.1562 14.7083 24.1562 13.8438C24.1562 12.9792 23.9453 12.2891 23.5234 11.7734C23.1068 11.2526 22.5469 10.9922 21.8438 10.9922C21.1771 10.9922 20.6354 11.237 20.2188 11.7266C19.8073 12.2109 19.6016 12.9167 19.6016 13.8438C19.6016 14.7708 19.8073 15.4792 20.2188 15.9688C20.6354 16.4531 21.1771 16.6953 21.8438 16.6953ZM30.0703 18.1328C29.2474 18.1328 28.5651 17.9245 28.0234 17.5078C27.4818 17.0859 27.2109 16.4635 27.2109 15.6406C27.2109 15.0156 27.3646 14.5365 27.6719 14.2031C27.9844 13.8646 28.388 13.6224 28.8828 13.4766C29.3828 13.3307 29.9115 13.224 30.4688 13.1562C30.9844 13.0938 31.3932 13.0417 31.6953 13C31.9974 12.9583 32.2109 12.8958 32.3359 12.8125C32.4661 12.7292 32.5312 12.5859 32.5312 12.3828V12.3125C32.5312 11.9115 32.3854 11.5833 32.0938 11.3281C31.8021 11.0677 31.3932 10.9375 30.8672 10.9375C30.3411 10.9375 29.9115 11.0651 29.5781 11.3203C29.2448 11.5703 29.0625 11.8854 29.0312 12.2656H27.4141C27.4505 11.4792 27.7812 10.8359 28.4062 10.3359C29.0312 9.83594 29.8594 9.58594 30.8906 9.58594C31.9062 9.58594 32.7057 9.83594 33.2891 10.3359C33.8724 10.8359 34.1641 11.5052 34.1641 12.3438V18H32.5391V16.8281H32.5078C32.3359 17.1615 32.0625 17.4635 31.6875 17.7344C31.3177 18 30.7786 18.1328 30.0703 18.1328ZM30.4062 16.8047C31.1354 16.8047 31.6719 16.6172 32.0156 16.2422C32.3646 15.862 32.5391 15.4193 32.5391 14.9141V13.9453C32.4297 14.0339 32.1823 14.1146 31.7969 14.1875C31.4115 14.2552 31 14.3203 30.5625 14.3828C30.1094 14.4505 29.7109 14.5781 29.3672 14.7656C29.0234 14.9531 28.8516 15.2552 28.8516 15.6719C28.8516 16.026 28.9896 16.3047 29.2656 16.5078C29.5469 16.7057 29.9271 16.8047 30.4062 16.8047ZM37.6719 6.35938V18H36.0234V6.35938H37.6719ZM44.6328 18.1875C43.5807 18.1875 42.6484 17.9323 41.8359 17.4219C41.0234 16.9115 40.388 16.2057 39.9297 15.3047C39.4714 14.4036 39.2422 13.3646 39.2422 12.1875C39.2422 10.9896 39.474 9.9401 39.9375 9.03906C40.401 8.13802 41.0365 7.4349 41.8438 6.92969C42.6562 6.42448 43.5833 6.17188 44.625 6.17188C45.4688 6.17188 46.2396 6.34115 46.9375 6.67969C47.6406 7.01823 48.2214 7.48698 48.6797 8.08594C49.1432 8.6849 49.4349 9.38021 49.5547 10.1719H47.7969C47.6354 9.45312 47.2708 8.8724 46.7031 8.42969C46.1354 7.98177 45.4505 7.75781 44.6484 7.75781C43.9141 7.75781 43.2708 7.94271 42.7188 8.3125C42.1719 8.68229 41.7448 9.20052 41.4375 9.86719C41.1354 10.5286 40.9844 11.3021 40.9844 12.1875C40.9844 13.0677 41.1354 13.8411 41.4375 14.5078C41.7448 15.1693 42.1719 15.6849 42.7188 16.0547C43.2708 16.4193 43.9167 16.6016 44.6562 16.6016C45.2656 16.6016 45.8151 16.4714 46.3047 16.2109C46.7995 15.9505 47.1901 15.5885 47.4766 15.125C47.7682 14.6562 47.9167 14.1146 47.9219 13.5H45.0391V12.0547H49.6328V13.3906C49.6328 14.3177 49.4141 15.1432 48.9766 15.8672C48.5391 16.5859 47.9427 17.1536 47.1875 17.5703C46.4375 17.9818 45.5859 18.1875 44.6328 18.1875ZM51.2578 18V9.75H52.8359V11.0859H52.8672C53.0182 10.6328 53.2552 10.2812 53.5781 10.0312C53.9062 9.77604 54.3333 9.64844 54.8594 9.64844C54.9844 9.64844 55.099 9.65365 55.2031 9.66406C55.3073 9.67448 55.3932 9.68229 55.4609 9.6875V11.2266C55.3984 11.2109 55.2865 11.1953 55.125 11.1797C54.9635 11.1589 54.7865 11.1484 54.5938 11.1484C54.1302 11.1484 53.7318 11.3099 53.3984 11.6328C53.0703 11.9557 52.9062 12.4531 52.9062 13.125V18H51.2578ZM59.0078 18.1328C58.1849 18.1328 57.5026 17.9245 56.9609 17.5078C56.4193 17.0859 56.1484 16.4635 56.1484 15.6406C56.1484 15.0156 56.3021 14.5365 56.6094 14.2031C56.9219 13.8646 57.3255 13.6224 57.8203 13.4766C58.3203 13.3307 58.849 13.224 59.4062 13.1562C59.9219 13.0938 60.3307 13.0417 60.6328 13C60.9349 12.9583 61.1484 12.8958 61.2734 12.8125C61.4036 12.7292 61.4688 12.5859 61.4688 12.3828V12.3125C61.4688 11.9115 61.3229 11.5833 61.0312 11.3281C60.7396 11.0677 60.3307 10.9375 59.8047 10.9375C59.2786 10.9375 58.849 11.0651 58.5156 11.3203C58.1823 11.5703 58 11.8854 57.9688 12.2656H56.3516C56.388 11.4792 56.7188 10.8359 57.3438 10.3359C57.9688 9.83594 58.7969 9.58594 59.8281 9.58594C60.8438 9.58594 61.6432 9.83594 62.2266 10.3359C62.8099 10.8359 63.1016 11.5052 63.1016 12.3438V18H61.4766V16.8281H61.4453C61.2734 17.1615 61 17.4635 60.625 17.7344C60.2552 18 59.7161 18.1328 59.0078 18.1328ZM59.3438 16.8047C60.0729 16.8047 60.6094 16.6172 60.9531 16.2422C61.3021 15.862 61.4766 15.4193 61.4766 14.9141V13.9453C61.3672 14.0339 61.1198 14.1146 60.7344 14.1875C60.349 14.2552 59.9375 14.3203 59.5 14.3828C59.0469 14.4505 58.6484 14.5781 58.3047 14.7656C57.9609 14.9531 57.7891 15.2552 57.7891 15.6719C57.7891 16.026 57.9271 16.3047 58.2031 16.5078C58.4844 16.7057 58.8646 16.8047 59.3438 16.8047ZM64.9609 21.2656V9.75H66.5781V10.9375H66.6016C66.862 10.4844 67.2188 10.1458 67.6719 9.92188C68.125 9.69792 68.6198 9.58594 69.1562 9.58594C69.8646 9.58594 70.487 9.76823 71.0234 10.1328C71.5599 10.4922 71.9766 10.9948 72.2734 11.6406C72.5755 12.2812 72.7266 13.026 72.7266 13.875C72.7266 14.724 72.5781 15.4714 72.2812 16.1172C71.9844 16.7578 71.5677 17.2604 71.0312 17.625C70.4948 17.9844 69.8672 18.1641 69.1484 18.1641C68.612 18.1641 68.1276 18.0469 67.6953 17.8125C67.263 17.5781 66.9089 17.2266 66.6328 16.7578H66.6094V21.2656H64.9609ZM68.8125 16.7422C69.4792 16.7422 70.0182 16.4974 70.4297 16.0078C70.8464 15.5182 71.0547 14.8073 71.0547 13.875C71.0547 12.9427 70.8464 12.2318 70.4297 11.7422C70.0182 11.2474 69.4792 11 68.8125 11C68.1094 11 67.5469 11.263 67.125 11.7891C66.7083 12.3099 66.5 13.0052 66.5 13.875C66.5 14.7396 66.7083 15.4349 67.125 15.9609C67.5469 16.4818 68.1094 16.7422 68.8125 16.7422ZM75.8281 13.25V18H74.1797V6.35938H75.8281V10.9375C76.3958 10.0365 77.2161 9.58594 78.2891 9.58594C78.8568 9.58594 79.3646 9.71094 79.8125 9.96094C80.2656 10.2057 80.6224 10.5703 80.8828 11.0547C81.1432 11.5391 81.2734 12.1406 81.2734 12.8594V18H79.625V13.0625C79.625 12.401 79.4661 11.9036 79.1484 11.5703C78.8307 11.2318 78.388 11.0625 77.8203 11.0625C77.2578 11.0625 76.7839 11.237 76.3984 11.5859C76.0182 11.9297 75.8281 12.4844 75.8281 13.25ZM86.1406 18L90.3672 6.35938H92.4609L96.6562 18H94.7734L93.7422 14.9766H89.0469L87.9844 18H86.1406ZM89.5703 13.5H93.2344L92.5312 11.4375C92.375 10.9583 92.2083 10.4453 92.0312 9.89844C91.8542 9.35156 91.651 8.70052 91.4219 7.94531C91.1875 8.70052 90.9818 9.35156 90.8047 9.89844C90.6276 10.4453 90.4583 10.9583 90.2969 11.4375L89.5703 13.5ZM99.5938 6.35938V18H97.8594V6.35938H99.5938Z" fill="url(#paint0_linear_1_767)"/>
<defs>
<linearGradient id="paint0_linear_1_767" x1="51" y1="-17" x2="51" y2="18.5" gradientUnits="userSpaceOnUse">
<stop stop-color="#2C8ED5"/>
<stop offset="1" stop-color="#1762AA"/>
</linearGradient>
</defs>
</svg>
